<?xml version="1.0" encoding="UTF-8"?>
<svg width="20px" height="20px" viewBox="0 0 20 20" version="1.1" xmlns="http://www.w3.org/2000/svg" xmlns:xlink="http://www.w3.org/1999/xlink">
    <!-- Generator: Sketch 56.3 (81716) - https://sketch.com -->
    <title>icon_down_black</title>
    <desc>Created with Sketch.</desc>
    <g id="Page-1" stroke="none" stroke-width="1" fill="none" fill-rule="evenodd">
        <g id="Cover" transform="translate(-836.000000, -401.000000)" fill="#000000">
            <path d="M836.319382,411.099319 C835.891559,410.662169 835.893549,409.985169 836.325352,409.58864 L845.257902,401.284741 C845.689705,400.882409 846.388152,400.909489 846.811995,401.346638 L855.67888,410.366223 C856.108693,410.805307 856.106703,411.482308 855.6749,411.876902 L854.654094,412.826638 C854.216322,413.232838 853.507926,413.194153 853.082093,412.747332 L847.84872,407.166911 L847.800963,419.975767 C847.798973,420.569593 847.305484,421.024151 846.696582,420.999005 L845.232034,420.940977 C844.621142,420.915831 844.133623,420.418719 844.135613,419.826827 L844.18337,407.017971 L838.90423,412.174783 C838.476407,412.592589 837.768011,412.57518 837.334218,412.12836 L836.319382,411.099319 Z" id="icon_down_black" transform="translate(846.000000, 411.000000) rotate(-180.000000) translate(-846.000000, -411.000000) "></path>
        </g>
    </g>
</svg>