<?xml version="1.0" encoding="UTF-8"?>
<svg width="20px" height="20px" viewBox="0 0 20 20" version="1.1" xmlns="http://www.w3.org/2000/svg" xmlns:xlink="http://www.w3.org/1999/xlink">
    <!-- Generator: Sketch 56.3 (81716) - https://sketch.com -->
    <title>icon_up_red</title>
    <desc>Created with Sketch.</desc>
    <g id="Page-1" stroke="none" stroke-width="1" fill="none" fill-rule="evenodd">
        <g id="Cover" transform="translate(-1100.000000, -353.000000)" fill="#C6401E">
            <path d="M1100.31938,363.099319 C1099.89156,362.662169 1099.89355,361.985169 1100.32535,361.58864 L1109.2579,353.284741 C1109.68971,352.882409 1110.38815,352.909489 1110.812,353.346638 L1119.67888,362.366223 C1120.10869,362.805307 1120.1067,363.482308 1119.6749,363.876902 L1118.65409,364.826638 C1118.21632,365.232838 1117.50793,365.194153 1117.08209,364.747332 L1111.84872,359.166911 L1111.80096,371.975767 C1111.79897,372.569593 1111.30548,373.024151 1110.69658,372.999005 L1109.23203,372.940977 C1108.62114,372.915831 1108.13362,372.418719 1108.13561,371.826827 L1108.18337,359.017971 L1102.90423,364.174783 C1102.47641,364.592589 1101.76801,364.57518 1101.33422,364.12836 L1100.31938,363.099319 Z" id="icon_up_red"></path>
        </g>
    </g>
</svg>