<?xml version="1.0" encoding="UTF-8"?>
<svg width="23px" height="23px" viewBox="0 0 23 23" version="1.1" xmlns="http://www.w3.org/2000/svg" xmlns:xlink="http://www.w3.org/1999/xlink">
    <!-- Generator: Sketch 56.3 (81716) - https://sketch.com -->
    <title>icon_ruler</title>
    <desc>Created with Sketch.</desc>
    <g id="Page-1" stroke="none" stroke-width="1" fill="none" fill-rule="evenodd">
        <g id="Cover" transform="translate(-363.000000, -844.000000)" fill="#FFFFFF" fill-rule="nonzero">
            <g id="Group-11" transform="translate(324.000000, 814.000000)">
                <path d="M46.1875,42.9375 L43.671875,42.9375 C43.4733203,42.9375 43.3125,42.7766797 43.3125,42.578125 L43.3125,41.859375 C43.3125,41.6608203 43.4733203,41.5 43.671875,41.5 L46.1875,41.5 L46.1875,38.625 L43.671875,38.625 C43.4733203,38.625 43.3125,38.4641797 43.3125,38.265625 L43.3125,37.546875 C43.3125,37.3483203 43.4733203,37.1875 43.671875,37.1875 L46.1875,37.1875 L46.1875,34.3125 L43.671875,34.3125 C43.4733203,34.3125 43.3125,34.1516797 43.3125,33.953125 L43.3125,33.234375 C43.3125,33.0358203 43.4733203,32.875 43.671875,32.875 L46.1875,32.875 L46.1875,31.4375 C46.1875,30.6437305 45.5437695,30 44.75,30 L40.4375,30 C39.6437305,30 39,30.6437305 39,31.4375 L39,51.5625 C39,51.6869336 39.0408789,51.7978906 39.0705273,51.9128906 L46.1875,44.7963672 L46.1875,42.9375 Z M60.5625,45.8125 L59.125,45.8125 L59.125,48.328125 C59.125,48.5266797 58.9641797,48.6875 58.765625,48.6875 L58.046875,48.6875 C57.8483203,48.6875 57.6875,48.5266797 57.6875,48.328125 L57.6875,45.8125 L54.8125,45.8125 L54.8125,48.328125 C54.8125,48.5266797 54.6516797,48.6875 54.453125,48.6875 L53.734375,48.6875 C53.5358203,48.6875 53.375,48.5266797 53.375,48.328125 L53.375,45.8125 L50.5,45.8125 L50.5,48.328125 C50.5,48.5266797 50.3391797,48.6875 50.140625,48.6875 L49.421875,48.6875 C49.2233203,48.6875 49.0625,48.5266797 49.0625,48.328125 L49.0625,45.8125 L47.204082,45.8125 L40.0871094,52.9294727 C40.2021094,52.9591211 40.3135156,53 40.4375,53 L60.5625,53 C61.3562695,53 62,52.3562695 62,51.5625 L62,47.25 C62,46.4562305 61.3562695,45.8125 60.5625,45.8125 Z" id="icon_ruler"></path>
            </g>
        </g>
    </g>
</svg>