<?xml version="1.0" encoding="UTF-8"?>
<svg width="32px" height="20px" viewBox="0 0 32 20" version="1.1" xmlns="http://www.w3.org/2000/svg" xmlns:xlink="http://www.w3.org/1999/xlink">
    <!-- Generator: Sketch 56.3 (81716) - https://sketch.com -->
    <title>icon_bed</title>
    <desc>Created with Sketch.</desc>
    <g id="Page-1" stroke="none" stroke-width="1" fill="none" fill-rule="evenodd">
        <g id="Cover" transform="translate(-124.000000, -845.000000)" fill="#FFFFFF" fill-rule="nonzero">
            <g id="Group-9" transform="translate(100.000000, 814.000000)">
                <g id="icon_bed" transform="translate(24.000000, 31.000000)">
                    <path d="M9,10 C11.2055,10 13,8.2055 13,6 C13,3.7945 11.2055,2 9,2 C6.7945,2 5,3.7945 5,6 C5,8.2055 6.7945,10 9,10 Z M26.4,3.33333333 L15.2,3.33333333 C14.758,3.33333333 14.4,3.70625 14.4,4.16666667 L14.4,11.6666667 L3.2,11.6666667 L3.2,0.833333333 C3.2,0.372916667 2.842,0 2.4,0 L0.8,0 C0.358,0 0,0.372916667 0,0.833333333 L0,19.1666667 C0,19.6270833 0.358,20 0.8,20 L2.4,20 C2.842,20 3.2,19.6270833 3.2,19.1666667 L3.2,16.6666667 L28.8,16.6666667 L28.8,19.1666667 C28.8,19.6270833 29.158,20 29.6,20 L31.2,20 C31.642,20 32,19.6270833 32,19.1666667 L32,9.16666667 C32,5.94479167 29.493,3.33333333 26.4,3.33333333 Z"></path>
                </g>
            </g>
        </g>
    </g>
</svg>