<?xml version="1.0" encoding="UTF-8"?>
<svg width="31px" height="27px" viewBox="0 0 31 27" version="1.1" xmlns="http://www.w3.org/2000/svg" xmlns:xlink="http://www.w3.org/1999/xlink">
    <!-- Generator: Sketch 56.3 (81716) - https://sketch.com -->
    <title>icon_trees</title>
    <desc>Created with Sketch.</desc>
    <g id="Page-1" stroke="none" stroke-width="1" fill="none" fill-rule="evenodd">
        <g id="Cover" transform="translate(-588.000000, -843.000000)" fill="#FFFFFF" fill-rule="nonzero">
            <g id="Group-13" transform="translate(547.000000, 811.000000)">
                <path d="M60.7347454,53.9371457 L62.7347454,53.9371457 C63.2274912,53.9371457 63.6786735,53.6629363 63.8837564,53.2384391 C64.0915737,52.807614 64.017197,52.3172011 63.6890644,51.9591469 L59.3199787,47.1873764 L60.9950957,47.1873764 C61.4878415,47.1873764 61.9237109,46.9237135 62.1315283,46.498689 C62.3393456,46.0747191 62.2709846,45.5885248 61.9521491,45.2304706 L57.6793157,40.4376071 L59.2592742,40.4376071 C59.7569419,40.4376071 60.2053898,40.1554878 60.4000819,39.7199168 C60.5925863,39.291201 60.501803,38.7923508 60.1682015,38.4501165 L57.4998475,35.708979 L60.862329,32.2550938 C61.1926491,31.9149687 61.8078978,31.9149687 62.137671,32.2550938 L68.1682015,38.4501165 C68.501803,38.7923508 68.5925863,39.291201 68.4000819,39.7199168 C68.2053898,40.1554878 67.7569419,40.4376071 67.2592742,40.4376071 L65.6793157,40.4376071 L69.9521491,45.2304706 C70.2709846,45.5885248 70.3393456,46.0747191 70.1315283,46.498689 C69.9237109,46.9237135 69.4878415,47.1873764 68.9950957,47.1873764 L67.3199787,47.1873764 L71.6890644,51.9591469 C72.017197,52.3172011 72.0915737,52.807614 71.8837564,53.2384391 C71.6786735,53.6629363 71.2274912,53.9371457 70.7347454,53.9371457 L63.2500406,53.9371457 L63.2500406,55.2264571 L64.9065634,57.7787136 C65.1975076,58.3397882 64.7742165,59 64.1239671,59 L58.8760329,59 C58.2257835,59 57.8024924,58.3397882 58.0934366,57.7787136 L59.7499594,55.2264571 L59.7499594,53.9371457 L53.2500406,53.9371457 L53.2500406,55.2264571 L54.9065634,57.7787136 C55.1975076,58.3397882 54.7742165,59 54.1239671,59 L48.8760329,59 C48.2257835,59 47.8024924,58.3397882 48.0934366,57.7787136 L49.7499594,55.2264571 L49.7499594,53.9371457 L42.2652546,53.9371457 C41.7725088,53.9371457 41.3213265,53.6629363 41.1162436,53.2384391 C40.9084263,52.807614 40.982803,52.3172011 41.3109356,51.9591469 L45.6800213,47.1873764 L44.0049043,47.1873764 C43.5116117,47.1873764 43.0762891,46.9237135 42.8684717,46.4992163 C42.6612013,46.0747191 42.7295623,45.5890521 43.047304,45.2315253 L47.3206843,40.4376071 L45.7407258,40.4376071 C45.2430581,40.4376071 44.7940633,40.1554878 44.5993713,39.7199168 C44.4074137,39.291201 44.4976501,38.7923508 44.8312516,38.4501165 L50.862329,32.2550938 C51.1926491,31.9149687 51.8078978,31.9149687 52.137671,32.2550938 L58.1682015,38.4501165 C58.501803,38.7923508 58.5925863,39.291201 58.4000819,39.7199168 C58.2053898,40.1554878 57.7569419,40.4376071 57.2592742,40.4376071 L55.6793157,40.4376071 L59.9521491,45.2304706 C60.2709846,45.5885248 60.3393456,46.0747191 60.1315283,46.498689 C59.9237109,46.9237135 59.4878415,47.1873764 58.9950957,47.1873764 L57.3199787,47.1873764 L61.6890644,51.9591469 C62.017197,52.3172011 62.0915737,52.807614 61.8837564,53.2384391 C61.6786735,53.6629363 61.2274912,53.9371457 60.7347454,53.9371457 Z" id="icon_trees"></path>
            </g>
        </g>
    </g>
</svg>